<svg xmlns="http://www.w3.org/2000/svg" xml:space="preserve" width="1266.667" height="1266.667">
<path d="M5643.61 6041.48c715.34 0 1295.43-578.32 1295.43-1291.47 0-713.14-580.09-1291.49-1295.43-1291.49-715.35 0-1295.45 578.35-1295.45 1291.49h803.4c0-270.78 220.43-490.25 492.05-490.25 271.6 0 491.76 219.47 491.76 490.25s-220.16 490.26-491.76 490.26v801.21" 
    style="fill:#99ddf8;fill-opacity:1;fill-rule:evenodd;stroke:none" 
    transform="matrix(.13333 0 0 -.13333 0 1266.667)"/>
<path d="M3856.41 6041.48c715.33 0 1295.15-578.32 1295.15-1291.47h-803.4c0 270.78-220.15 490.26-491.75 490.26-271.9 0-492.05-219.48-492.05-490.26s220.15-490.25 492.05-490.25v-801.24c-715.63 0-1295.45 578.35-1295.45 1291.49 0 713.15 579.82 1291.47 1295.45 1291.47" 
    style="fill:#2e3491;fill-opacity:1;fill-rule:evenodd;stroke:none" 
    transform="matrix(.13333 0 0 -.13333 0 1266.667)"/>
<path d="M4749.86 5684.91c247.6-235.15 401.7-567.21 401.7-934.9 0-367.7-154.1-699.76-401.7-934.9-247.59 235.14-401.7 567.2-401.7 934.9 0 367.69 154.11 699.75 401.7 934.9" 
    style="fill:#52aee5;fill-opacity:1;fill-rule:evenodd;stroke:none" 
    transform="matrix(.13333 0 0 -.13333 0 1266.667)"/>
</svg>